<svg width="54" height="54" viewBox="0 0 54 54" fill="none" xmlns="http://www.w3.org/2000/svg">
<g clip-path="url(#clip0)">
<path d="M53.1904 21.9651C53.3827 21.4104 53.4711 20.8401 53.4711 20.2766C53.4711 18.5747 52.6313 16.9304 51.1394 15.8983C46.381 12.6007 47.0109 13.4296 45.2185 8.06776C44.467 5.82889 42.3033 4.31716 39.8611 4.31716H39.8456C33.9821 4.33705 34.9988 4.65089 30.2669 1.32464C29.2812 0.630652 28.1142 0.283661 26.9495 0.283661C25.7847 0.283661 24.6178 0.630652 23.6299 1.32464C18.8648 4.67299 19.9036 4.33484 14.0511 4.31495H14.0357C11.5957 4.31495 9.42974 5.82889 8.68271 8.06555C6.88808 13.4406 7.5025 12.6096 2.76397 15.8983C1.26771 16.9348 0.427856 18.577 0.427856 20.281C0.427856 20.8423 0.520682 21.4104 0.708544 21.9651C2.54517 27.3313 2.54075 26.3014 0.708544 31.6455C0.520682 32.2002 0.427856 32.766 0.427856 33.3296C0.427856 35.0314 1.26771 36.6758 2.76397 37.7123C7.50692 41.0054 6.8925 40.1722 8.68493 45.5428C9.43195 47.7817 11.5957 49.2934 14.0379 49.2934H14.0533C19.9168 49.2735 18.9002 48.9575 23.6321 52.2837C24.6178 52.9777 25.7847 53.3269 26.9495 53.3269C28.1142 53.3269 29.2812 52.9777 30.2691 52.286C35.001 48.9619 33.9799 49.2757 39.8478 49.2956H39.8633C42.3033 49.2956 44.4692 47.7817 45.2207 45.545C47.0131 40.181 46.381 41.0098 51.1416 37.7145C52.6313 36.678 53.4711 35.0336 53.4711 33.3318C53.4711 32.7705 53.3827 32.2002 53.1904 31.6455C51.3538 26.2793 51.3627 27.307 53.1904 21.9651ZM23.6343 37.3034L13.6887 27.6584L17.7951 23.5542L23.6343 29.0906L36.1039 16.3094L40.2103 20.4136L23.6343 37.3034Z" fill="black"/>
</g>
<defs>
<clipPath id="clip0">
<rect width="53.0433" height="53.0433" fill="white" transform="translate(0.427856 0.283661)"/>
</clipPath>
</defs>
</svg>
